HIERARCHY
ROOT Hips
{
	OFFSET 0.00000 0.00000 0.00000
	CHANNELS 6 Xposition Yposition Zposition Zrotation Yrotation Xrotation 
	JOINT LHipJoint
	{
		OFFSET 0 0 0
		CHANNELS 3 Zrotation Yrotation Xrotation
		JOINT LeftUpLeg
		{
			OFFSET 1.81638 -1.86202 0.89635
			CHANNELS 3 Zrotation Yrotation Xrotation
			JOINT LeftLeg
			{
				OFFSET 2.63464 -7.23861 0.00000
				CHANNELS 3 Zrotation Yrotation Xrotation
				JOINT LeftFoot
				{
					OFFSET 2.45871 -6.75336 0.00000
					CHANNELS 3 Zrotation Yrotation Xrotation
					JOINT LeftToeBase
					{
						OFFSET 0.34235 -0.94059 2.20020
						CHANNELS 3 Zrotation Yrotation Xrotation
						End Site
						{
							OFFSET 0.00000 -0.00000 1.18611
						}
					}
				}
			}
		}
	}
	JOINT RHipJoint
	{
		OFFSET 0 0 0
		CHANNELS 3 Zrotation Yrotation Xrotation
		JOINT RightUpLeg
		{
			OFFSET -1.84405 -1.86203 0.89635
			CHANNELS 3 Zrotation Yrotation Xrotation
			JOINT RightLeg
			{
				OFFSET -2.71067 -7.44751 0.00000
				CHANNELS 3 Zrotation Yrotation Xrotation
				JOINT RightFoot
				{
					OFFSET -2.47159 -6.79060 0.00000
					CHANNELS 3 Zrotation Yrotation Xrotation
					JOINT RightToeBase
					{
						OFFSET -0.26223 -0.72048 2.36007
						CHANNELS 3 Zrotation Yrotation Xrotation
						End Site
						{
							OFFSET -0.00000 -0.00000 1.23343
						}
					}
				}
			}
		}
	}
	JOINT LowerBack
	{
		OFFSET 0 0 0
		CHANNELS 3 Zrotation Yrotation Xrotation
		JOINT Spine
		{
			OFFSET 0.02089 1.99248 -0.22512
			CHANNELS 3 Zrotation Yrotation Xrotation
			JOINT Spine1
			{
				OFFSET 0.01476 2.01356 -0.03079
				CHANNELS 3 Zrotation Yrotation Xrotation
				JOINT Neck
				{
					OFFSET 0 0 0
					CHANNELS 3 Zrotation Yrotation Xrotation
					JOINT Neck1
					{
						OFFSET 0.04846 1.65098 0.06663
						CHANNELS 3 Zrotation Yrotation Xrotation
						JOINT Head
						{
							OFFSET -0.06061 1.60634 -0.07565
							CHANNELS 3 Zrotation Yrotation Xrotation
							End Site
							{
								OFFSET -0.02954 1.73562 -0.03642
							}
						}
					}
				}
				JOINT LeftShoulder
				{
					OFFSET 0 0 0
					CHANNELS 3 Zrotation Yrotation Xrotation
					JOINT LeftArm
					{
						OFFSET 3.45234 1.47051 -0.06993
						CHANNELS 3 Zrotation Yrotation Xrotation
						JOINT LeftForeArm
						{
							OFFSET 5.49313 -0.00000 0.00000
							CHANNELS 3 Zrotation Yrotation Xrotation
							JOINT LeftHand
							{
								OFFSET 3.29037 -0.00000 0.00000
								CHANNELS 3 Zrotation Yrotation Xrotation
								JOINT LeftFingerBase
								{
									OFFSET 0 0 0
									CHANNELS 3 Zrotation Yrotation Xrotation
									JOINT LeftHandIndex1
									{
										OFFSET 0.72966 -0.00000 0.00000
										CHANNELS 3 Zrotation Yrotation Xrotation
										End Site
										{
											OFFSET 0.58827 -0.00000 0.00000
										}
									}
								}
								JOINT LThumb
								{
									OFFSET 0 0 0
									CHANNELS 3 Zrotation Yrotation Xrotation
									End Site
									{
										OFFSET 0.59725 -0.00000 0.59725
									}
								}
							}
						}
					}
				}
				JOINT RightShoulder
				{
					OFFSET 0 0 0
					CHANNELS 3 Zrotation Yrotation Xrotation
					JOINT RightArm
					{
						OFFSET -3.41935 1.44327 0.20453
						CHANNELS 3 Zrotation Yrotation Xrotation
						JOINT RightForeArm
						{
							OFFSET -5.23684 -0.00000 0.00000
							CHANNELS 3 Zrotation Yrotation Xrotation
							JOINT RightHand
							{
								OFFSET -3.38251 -0.00000 0.00000
								CHANNELS 3 Zrotation Yrotation Xrotation
								JOINT RightFingerBase
								{
									OFFSET 0 0 0
									CHANNELS 3 Zrotation Yrotation Xrotation
									JOINT RightHandIndex1
									{
										OFFSET -0.69145 -0.00000 0.00000
										CHANNELS 3 Zrotation Yrotation Xrotation
										End Site
										{
											OFFSET -0.55747 -0.00000 0.00000
										}
									}
								}
								JOINT RThumb
								{
									OFFSET 0 0 0
									CHANNELS 3 Zrotation Yrotation Xrotation
									End Site
									{
										OFFSET -0.56598 -0.00000 0.56598
									}
								}
							}
						}
					}
				}
			}
		}
	}
}
MOTION
Frames: 14
Frame Time: 0.142857
0.00 0.00 0.00 0 0 0 0 0 0 -21 0 0 0 0 0 0 0 0 0 0 0 0 0 0 21 0 0 0 0 0 0 0 0 0 0 0 0 0 0 0 0 0 0 0 0 0 0 -16 0 0 21 0 0 11 0 0 0 -8 0 0 0 0 0 0 0 0 0 0 0 0 0 0 0 0 0 0 0 0 8 0 0 0 0 0 0 0 0 0 0 0 0 0 0 0 0 0
0.00 0.00 0.00 -26.9090 74.9557 -17.2545 0.0000 0.0000 0.0000 -13.0304 -4.6162 -21.2366 3.3167 11.1908 32.9262 1.4134 0.4125 -22.6375 0.0630 -1.6192 -4.4544 0.0000 0.0000 0.0000 24.0356 -4.7888 4.7992 -0.5429 -4.7208 13.1140 -0.2283 -9.7839 -17.2204 -0.7359 5.4803 -15.2838 -1.4633 1.8712 15.1615 0.9385 2.5271 5.8825 1.3769 1.3307 -2.3688 3.3832 2.5324 -0.0538 -2.4376 3.4787 5.7631 -1.2829 1.7676 1.9258 0.0000 0.0000 0.0000 -82.7418 8.5750 21.2635 31.2924 -41.9757 -12.2649 -0.0000 0.0000 -2.2130 -1.0013 12.0948 -0.2098 -7.1250 0.0000 -0.0000 -24.6273 40.7228 2.7917 0.0000 0.0000 0.0000 76.4613 -9.0585 39.7111 -26.4720 37.6710 -9.1746 0.0000 0.0000 1.0546 -8.6662 -15.4919 2.3313 7.1250 -0.0000 -0.0000 17.5392 -44.8931 0.0478
0.00 0.00 0.00 -26.4490 73.7133 -15.7951 0.0000 0.0000 0.0000 -14.0209 -3.5563 -18.5998 2.7403 10.2622 29.8301 1.5060 1.2447 -23.6752 0.0404 -1.2975 -3.5678 0.0000 0.0000 0.0000 22.1746 -5.0833 -4.4246 -2.4558 -9.7571 28.1937 -0.4932 -2.3669 -14.3399 -0.6202 5.0400 -14.0228 -2.8890 1.4020 15.7592 1.5829 1.7119 5.7317 2.9876 0.9132 -2.8668 2.2517 3.5859 -0.4844 -2.7213 4.8634 4.3211 -1.1513 2.4201 1.5557 0.0000 -0.0000 0.0000 -83.5094 9.5017 20.5989 34.0264 -44.1043 -14.1314 -0.0000 0.0000 -3.0265 -0.2676 10.9503 -0.0508 -7.1250 0.0000 -0.0000 -23.6316 39.7439 3.2758 0.0000 -0.0000 0.0000 74.7868 -8.1926 40.5990 -26.9088 38.0921 -9.4428 0.0000 -0.0000 -0.5689 -8.7207 -15.3342 2.3229 7.1250 -0.0000 -0.0000 17.4373 -44.7480 0.1120
0.00 0.00 0.00 0.6704 82.8077 12.9209 0.0000 0.0000 0.0000 -19.1714 4.3889 -1.5360 2.0478 8.9649 25.6855 -0.1563 -13.4683 -7.3722 0.9927 -6.3412 -17.7778 0.0000 0.0000 0.0000 18.4538 12.2301 -23.2446 -2.5483 -9.9252 28.7349 -0.5794 -6.1328 -17.9140 -0.0119 0.7048 -1.9369 -3.2655 -2.4604 17.0249 4.2342 -3.2821 4.5135 7.0386 -1.5052 -4.2345 3.8161 2.2068 -0.3439 -9.8241 3.3022 3.6796 -3.8448 1.5950 1.4983 0.0000 -0.0000 0.0000 -85.3188 13.1626 21.6838 40.4345 -48.3252 -18.7632 -0.0000 0.0000 -6.6642 2.7959 11.1787 0.5425 -7.1250 0.0000 -0.0000 -21.1776 40.2211 2.6314 0.0000 -0.0000 0.0000 74.0861 -15.7394 35.0081 -23.6322 34.7729 -7.4957 0.0000 0.0000 2.9787 -6.5229 -14.9180 1.6860 7.1250 -0.0000 -0.0000 19.2310 -44.1026 0.4431
0.00 0.00 0.00 -3.3002 87.7397 8.7591 0.0000 0.0000 0.0000 -16.4232 2.3897 -8.5137 4.8879 13.2564 40.3361 -0.3896 -13.6333 -3.6339 0.7999 -5.7083 -15.9402 0.0000 0.0000 0.0000 20.1941 10.9119 -19.9583 -2.6371 -10.0830 29.2460 -0.7780 -9.4402 -22.6357 -0.0112 0.6845 -1.8811 0.1911 -2.5222 17.0450 5.2187 -2.6423 4.7116 5.9843 -1.1721 -4.2494 4.1594 1.0810 -1.4986 -10.7602 1.8455 3.9434 -4.2759 0.8360 1.7039 0.0000 -0.0000 0.0000 -86.2586 13.4594 22.5530 38.8005 -47.3429 -17.5519 -0.0000 0.0000 -5.6678 2.7626 11.5387 0.5530 -7.1250 0.0000 -0.0000 -21.3194 40.5537 2.4658 0.0000 -0.0000 0.0000 74.4690 -16.0635 32.7385 -22.7049 33.7645 -6.9736 0.0000 0.0000 2.9390 -5.8897 -15.3350 1.5627 7.1250 -0.0000 -0.0000 19.9332 -44.4255 0.2948
0.00 0.00 0.00 -153.2780 87.7465 -142.1400 0.0000 0.0000 0.0000 -13.8972 1.4422 -17.8390 9.0759 16.8563 56.3522 -0.0267 -11.1220 -7.3923 0.4631 -4.3653 -12.1067 0.0000 0.0000 0.0000 22.9158 7.5469 -14.7654 -2.2546 -9.3774 26.9830 -1.0451 -10.0354 -25.3736 -0.0233 0.9855 -2.7090 3.5611 -2.0564 17.5407 6.3711 -1.2503 5.3076 5.0247 -0.4404 -4.0686 4.6304 0.0591 -2.0758 -11.4543 0.4505 3.4983 -4.6490 0.1387 1.5549 -0.0000 -0.0000 0.0000 -87.0175 14.4836 23.6200 37.2158 -46.3310 -16.3959 -0.0000 0.0000 -4.3273 3.7361 11.6350 0.7545 -7.1250 0.0000 -0.0000 -20.5350 40.7309 2.2710 -0.0000 -0.0000 0.0000 73.5938 -14.6732 31.0648 -21.3740 32.2623 -6.2484 0.0000 0.0000 5.2680 -4.6746 -15.6467 1.2634 7.1250 -0.0000 -0.0000 21.1109 -44.5794 0.2298
0.00 0.00 0.00 -61.3347 85.0228 -52.2727 0.0000 0.0000 0.0000 -12.2024 -9.1515 -30.4329 4.0304 12.2007 36.4458 0.7453 -7.9037 -15.5358 0.0184 -0.8752 -2.4055 0.0000 0.0000 0.0000 24.3562 -0.9777 -2.6581 -5.0302 -13.4177 40.9530 0.0013 2.0847 -1.3500 -1.6387 8.0690 -22.9237 1.0786 3.2598 20.3019 -0.7942 4.7984 6.2679 -2.5919 2.5204 -4.3686 8.7298 0.1535 -3.2712 -0.9320 -0.1479 3.4203 -1.8068 0.0384 1.6463 -0.0000 -0.0000 0.0000 -76.1631 20.5248 24.5906 26.0859 -37.2934 -8.9397 -0.0000 0.0000 -2.2261 -0.0999 9.9290 -0.0172 -7.1250 0.0000 -0.0000 -23.1637 38.8206 3.7677 -0.0000 -0.0000 0.0000 80.4172 -7.8990 30.3015 -34.4187 44.3926 -14.4052 0.0000 -0.0000 -9.2557 -15.6222 -16.1441 4.4458 7.1250 -0.0000 -0.0000 11.4568 -46.3845 -0.3966
0.00 0.00 0.00 -20.7834 84.6327 -12.2442 0.0000 0.0000 0.0000 -15.6331 -5.4447 -27.1951 4.0989 12.2909 36.7690 1.1426 -8.8173 -19.1782 0.0279 -1.0787 -2.9655 0.0000 0.0000 0.0000 19.8716 1.8746 -11.2351 -9.3818 -17.0472 57.4015 0.0014 2.3833 -1.5656 -1.2579 7.1099 -20.0414 -3.6645 3.1969 21.1053 -2.8553 3.6917 6.5607 -1.9038 2.0088 -4.6468 7.9178 0.9400 -3.2627 1.3837 0.8988 2.9178 -0.8844 0.5935 1.5003 0.0000 -0.0000 0.0000 -74.7089 16.9860 24.7496 23.9410 -35.1018 -7.6726 -0.0000 -0.0000 1.7263 -1.8501 8.3361 -0.2683 -7.1250 0.0000 -0.0000 -24.0716 37.2247 4.9613 0.0000 -0.0000 0.0000 82.3066 -7.6671 31.7905 -35.7063 45.3099 -15.3133 0.0000 -0.0000 -8.3561 -17.0572 -17.4796 5.2655 7.1250 -0.0000 -0.0000 10.5186 -47.9287 -0.7680
0.00 0.00 0.00 -66.1794 86.8224 -54.6769 0.0000 0.0000 0.0000 -15.0255 -5.8860 -12.9604 1.9895 8.8441 25.3088 1.3693 -6.4046 -20.9444 0.1291 -2.3161 -6.3801 0.0000 0.0000 0.0000 20.3699 6.5311 -32.4517 -6.9866 -15.3206 48.8237 -0.8308 -0.0359 -17.2436 -0.3726 3.9207 -10.8538 -2.9069 -0.3124 21.6351 -1.2370 -0.7690 5.3774 0.5099 -0.1925 -6.1825 6.4983 1.2649 -3.1904 -1.2480 1.4559 1.7160 -1.4674 0.7611 1.1397 0.0000 0.0000 0.0000 -75.3153 6.7473 26.9779 36.3960 -45.7836 -15.8056 -0.0000 -0.0000 2.8378 15.0410 8.4773 2.2685 -7.1250 0.0000 -0.0000 -10.1953 38.5639 1.6363 0.0000 0.0000 0.0000 79.2738 -15.1500 35.7964 -35.1022 44.8850 -14.8854 0.0000 -0.0000 -3.4648 -13.8976 -16.1674 3.9412 7.1250 -0.0000 -0.0000 13.0456 -46.1872 -0.3888
0.00 0.00 0.00 -160.0820 83.3007 -149.5820 0.0000 0.0000 0.0000 -12.0297 -10.1996 -29.1313 5.7642 14.1959 44.0280 1.1488 -10.6950 -19.4606 0.5376 -4.6981 -13.0494 0.0000 0.0000 0.0000 24.2295 5.4929 -6.8719 -1.7762 -8.3835 23.8852 -1.0060 -3.3278 -20.4227 -0.6075 4.9887 -13.8764 5.5001 1.1317 19.4189 2.5785 3.0800 4.3502 -1.1094 1.5654 -6.0131 8.2792 -1.6761 -2.9545 -8.9277 -2.3614 1.2384 -4.4850 -1.2301 0.7071 -0.0000 -0.0000 0.0000 -79.8751 30.3766 35.2579 28.6502 -39.7079 -10.5365 -0.0000 -0.0000 4.2768 -21.1952 11.1433 -4.2859 -7.1250 0.0000 -0.0000 -39.4904 37.8369 8.6920 -0.0000 -0.0000 0.0000 77.1009 -19.6531 32.5660 -24.3322 35.5136 -7.8987 0.0000 0.0000 2.7642 -12.0140 -18.1496 3.7926 7.1250 -0.0000 -0.0000 15.4442 -47.8904 -1.1266
0.00 0.00 0.00 -145.1920 84.8712 -133.4880 0.0000 0.0000 0.0000 -13.4054 -12.1579 -29.2292 2.4826 9.8062 28.3513 1.2547 -9.2354 -20.1101 0.6104 -5.0005 -13.9099 0.0000 0.0000 0.0000 24.3534 4.1499 -2.1861 -1.3025 -7.2300 20.3987 -0.3980 -0.9834 -12.3136 -1.1496 6.8080 -19.1478 4.1665 1.8354 17.7886 1.7405 3.5278 4.2316 -1.2866 1.7920 -5.2716 8.2669 -0.8368 -3.1923 -7.4791 -1.2747 1.7676 -3.9614 -0.6796 1.0321 0.0000 0.0000 0.0000 -79.0999 33.6536 36.3848 28.9768 -40.0001 -10.7458 -0.0000 -0.0000 1.6787 -22.0151 12.2324 -4.8965 -7.1250 0.0000 -0.0000 -40.5687 38.6424 8.0066 0.0000 0.0000 0.0000 77.6496 -20.4420 33.5312 -25.7313 36.9422 -8.7257 0.0000 -0.0000 -0.6575 -7.7978 -17.6035 2.3716 7.1250 -0.0000 -0.0000 19.0884 -46.8008 -0.8795
0.00 0.00 0.00 -154.1650 81.7958 -147.6530 0.0000 0.0000 0.0000 -12.2268 -6.3549 -17.0619 3.2814 11.1373 32.7443 0.3197 -14.0006 -13.2616 0.3259 -3.6691 -10.1475 0.0000 0.0000 0.0000 19.1848 7.4787 -28.6984 -3.9045 -12.0323 35.8462 -0.8015 1.0090 -16.6053 -0.2927 3.4791 -9.6156 -3.0201 -0.3564 23.0253 -1.0967 -0.7234 6.3093 0.7145 -0.1201 -5.8763 3.7937 -0.9844 -2.2694 2.6562 -1.4468 1.4041 0.1683 -0.6579 0.7937 0.0000 0.0000 0.0000 -70.5278 8.9318 26.9483 72.6933 -58.8374 -45.0705 -0.0000 0.0000 -3.6520 22.8560 -2.2967 -0.9677 -7.1250 0.0000 -0.0000 -2.8695 27.4844 1.2227 0.0000 0.0000 0.0000 82.4846 -24.7084 35.6714 -27.4624 38.6166 -9.7863 0.0000 -0.0000 -6.0141 -9.8578 -16.4563 2.8182 7.1250 -0.0000 -0.0000 16.8065 -45.9644 -0.4116
0.00 0.00 0.00 -166.9990 78.2063 -161.0670 0.0000 0.0000 0.0000 -12.3351 -6.9951 -12.6474 2.9747 10.6540 31.1217 0.1843 -15.8340 -12.9667 0.3664 -3.8882 -10.7625 0.0000 0.0000 0.0000 16.2883 10.1309 -26.4243 -1.2822 -7.1756 20.2367 -0.7752 -3.7581 -18.4089 -0.2944 3.4893 -9.6440 -2.2594 -0.8219 23.0874 -0.3769 -1.0708 6.4111 1.1531 -0.2837 -5.7886 3.0228 -2.1520 -1.9266 2.6431 -2.9784 1.4861 0.2739 -1.4330 0.7649 0.0000 -0.0000 0.0000 -69.7522 7.6277 31.2137 85.4510 -59.9217 -56.0615 -0.0000 0.0000 -3.7541 20.9987 -2.2675 -0.8701 -7.1250 0.0000 -0.0000 -4.2979 27.5436 1.8281 0.0000 -0.0000 0.0000 81.6609 -25.1183 35.0604 -27.3807 38.5398 -9.7354 0.0000 -0.0000 -4.5173 -10.1825 -16.0810 2.8482 7.1250 -0.0000 -0.0000 16.3849 -45.6414 -0.2666
0.00 0.00 0.00 173.1390 81.6918 169.8280 0.0000 0.0000 0.0000 -17.9145 -5.8348 12.3128 0.6587 5.1911 14.4544 1.4352 -7.9556 -21.4317 0.1604 -2.5801 -7.1117 0.0000 0.0000 0.0000 16.0308 4.8267 -15.6986 -2.8149 -10.3891 30.2463 -0.1414 -7.2120 -13.0287 -0.0019 -0.2816 0.7738 1.3739 -0.3486 18.1585 1.2379 0.4135 8.3285 0.4435 0.4754 -1.2559 4.5808 -3.2459 -1.5092 -5.6767 -4.2164 4.1053 -2.6658 -2.1202 1.3262 0.0000 0.0000 0.0000 -80.7599 15.9244 22.7187 31.9930 -42.5416 -12.7361 -0.0000 -0.0000 0.3055 -9.2055 12.7628 -2.0504 -7.1250 0.0000 -0.0000 -31.4827 40.5212 3.9317 0.0000 0.0000 0.0000 79.3831 -11.0943 26.8325 -30.7529 41.5300 -11.9057 0.0000 -0.0000 -6.2945 -14.9045 -16.6112 4.3512 7.1250 -0.0000 -0.0000 12.2576 -46.7600 -0.5403
